<svg width="15" height="14" viewBox="0 0 15 14" xmlns="http://www.w3.org/2000/svg"><title>D922A1B4-80C3-4480-8F33-B816D56C00A1</title><path d="M7 2.383v7.166c0 .279.223.504.5.504s.5-.225.5-.504V2.363l1.65 2.01a.498.498 0 0 0 .71 0 .511.511 0 0 0 0-.717L7.888.645a.492.492 0 0 0-.38-.143.49.49 0 0 0-.38.143L4.657 3.656a.51.51 0 0 0 0 .717.497.497 0 0 0 .709 0L7 2.383zm7 6.665v3.518H1V9.048a.501.501 0 1 0-1 0v4.02a.5.5 0 0 0 .5.503h14a.5.5 0 0 0 .5-.502V9.048a.501.501 0 1 0-1 0z" fill="#FFF" fill-rule="evenodd"/></svg>
